<?xml version="1.0" encoding="UTF-8" standalone="no"?>
<svg
   xmlns:dc="http://purl.org/dc/elements/1.1/"
   xmlns:cc="http://creativecommons.org/ns#"
   xmlns:rdf="http://www.w3.org/1999/02/22-rdf-syntax-ns#"
   xmlns:svg="http://www.w3.org/2000/svg"
   xmlns="http://www.w3.org/2000/svg"
   xmlns:sodipodi="http://sodipodi.sourceforge.net/DTD/sodipodi-0.dtd"
   xmlns:inkscape="http://www.inkscape.org/namespaces/inkscape"
   version="1.1"
   width="512"
   height="512"
   x="0"
   y="0"
   viewBox="0 0 512 512"
   style="enable-background:new 0 0 512 512"
   xml:space="preserve"
   class=""
   id="svg3672"
   sodipodi:docname="whatsapp.svg"
   inkscape:version="1.0.1 (3bc2e813f5, 2020-09-07)"><metadata
     id="metadata3678"><rdf:RDF><cc:Work
         rdf:about=""><dc:format>image/svg+xml</dc:format><dc:type
           rdf:resource="http://purl.org/dc/dcmitype/StillImage" /><dc:title></dc:title></cc:Work></rdf:RDF></metadata><defs
     id="defs3676" /><sodipodi:namedview
     pagecolor="#ffffff"
     bordercolor="#666666"
     borderopacity="1"
     objecttolerance="10"
     gridtolerance="10"
     guidetolerance="10"
     inkscape:pageopacity="0"
     inkscape:pageshadow="2"
     inkscape:window-width="1920"
     inkscape:window-height="1017"
     id="namedview3674"
     showgrid="false"
     inkscape:zoom="1.0507812"
     inkscape:cx="256"
     inkscape:cy="256"
     inkscape:window-x="-8"
     inkscape:window-y="-8"
     inkscape:window-maximized="1"
     inkscape:current-layer="svg3672"
     inkscape:document-rotation="0" /><g
     id="g3670"
     style="fill:#ff8303;fill-opacity:1">
<g
   id="g3638"
   style="fill:#ff8303;fill-opacity:1">
	<g
   id="g3636"
   style="fill:#ff8303;fill-opacity:1">
		<path
   d="M256.064,0h-0.128C114.784,0,0,114.816,0,256c0,56,18.048,107.904,48.736,150.048l-31.904,95.104l98.4-31.456    C155.712,496.512,204,512,256.064,512C397.216,512,512,397.152,512,256S397.216,0,256.064,0z M405.024,361.504    c-6.176,17.44-30.688,31.904-50.24,36.128c-13.376,2.848-30.848,5.12-89.664-19.264C189.888,347.2,141.44,270.752,137.664,265.792    c-3.616-4.96-30.4-40.48-30.4-77.216s18.656-54.624,26.176-62.304c6.176-6.304,16.384-9.184,26.176-9.184    c3.168,0,6.016,0.16,8.576,0.288c7.52,0.32,11.296,0.768,16.256,12.64c6.176,14.88,21.216,51.616,23.008,55.392    c1.824,3.776,3.648,8.896,1.088,13.856c-2.4,5.12-4.512,7.392-8.288,11.744c-3.776,4.352-7.36,7.68-11.136,12.352    c-3.456,4.064-7.36,8.416-3.008,15.936c4.352,7.36,19.392,31.904,41.536,51.616c28.576,25.44,51.744,33.568,60.032,37.024    c6.176,2.56,13.536,1.952,18.048-2.848c5.728-6.176,12.8-16.416,20-26.496c5.12-7.232,11.584-8.128,18.368-5.568    c6.912,2.4,43.488,20.48,51.008,24.224c7.52,3.776,12.48,5.568,14.304,8.736C411.2,329.152,411.2,344.032,405.024,361.504z"
   fill="#7a0d62"
   data-original="#000000"
   style="fill:#ff8303;fill-opacity:1"
   id="path3634" />
	</g>
</g>
<g
   id="g3640"
   style="fill:#ff8303;fill-opacity:1">
</g>
<g
   id="g3642"
   style="fill:#ff8303;fill-opacity:1">
</g>
<g
   id="g3644"
   style="fill:#ff8303;fill-opacity:1">
</g>
<g
   id="g3646"
   style="fill:#ff8303;fill-opacity:1">
</g>
<g
   id="g3648"
   style="fill:#ff8303;fill-opacity:1">
</g>
<g
   id="g3650"
   style="fill:#ff8303;fill-opacity:1">
</g>
<g
   id="g3652"
   style="fill:#ff8303;fill-opacity:1">
</g>
<g
   id="g3654"
   style="fill:#ff8303;fill-opacity:1">
</g>
<g
   id="g3656"
   style="fill:#ff8303;fill-opacity:1">
</g>
<g
   id="g3658"
   style="fill:#ff8303;fill-opacity:1">
</g>
<g
   id="g3660"
   style="fill:#ff8303;fill-opacity:1">
</g>
<g
   id="g3662"
   style="fill:#ff8303;fill-opacity:1">
</g>
<g
   id="g3664"
   style="fill:#ff8303;fill-opacity:1">
</g>
<g
   id="g3666"
   style="fill:#ff8303;fill-opacity:1">
</g>
<g
   id="g3668"
   style="fill:#ff8303;fill-opacity:1">
</g>
</g><path
     style="font-variation-settings:normal;opacity:1;vector-effect:none;fill:#962d2d;fill-opacity:1;stroke:none;stroke-width:1.04837;stroke-linecap:butt;stroke-linejoin:miter;stroke-miterlimit:4;stroke-dasharray:none;stroke-dashoffset:0;stroke-opacity:1;stop-color:#000000;stop-opacity:1"
     d="m 242.20074,510.94758 c -30.84399,-1.5107 -60.71548,-8.74056 -90.88476,-21.99705 -9.10425,-4.00044 -24.93563,-12.56668 -31.64887,-17.12496 l -4.05036,-2.75018 -48.767488,15.60986 c -26.822119,8.58543 -48.839563,15.56619 -48.927655,15.51281 -0.08809,-0.0534 6.960021,-21.30754 15.66247,-47.23145 L 49.406711,405.83222 45.07636,399.67448 C 12.544261,353.41397 -3.6852119,291.81173 1.4578306,234.11152 5.7761463,185.664 23.008195,141.26114 53.163924,100.87732 62.711376,88.0916 88.950423,62.073034 102.38181,52.073005 133.48782,28.913726 166.74598,13.80628 204.22416,5.8113339 c 32.27293,-6.884547 71.73099,-6.72653121 105.59231,0.4228603 63.95358,13.5029968 121.95993,53.2819978 159.2288,109.1942858 40.39567,60.60325 52.72851,137.21204 33.42667,207.63883 -9.29419,33.9118 -26.87669,67.80298 -49.22133,94.8767 -9.88296,11.97462 -28.794,30.53601 -39.74874,39.01384 -50.23149,38.87392 -108.02482,57.0889 -171.30113,53.98973 z M 353.24633,398.32252 c 16.44372,-3.49887 29.74534,-10.25847 40.95713,-20.81354 6.864,-6.46195 10.1883,-12.04672 13.13054,-22.05916 2.93062,-9.9729 4.27805,-26.39598 2.44644,-29.81837 -1.14346,-2.13657 -25.80942,-14.96262 -52.78367,-27.44695 -15.47629,-7.1628 -21.07516,-8.27824 -25.99287,-5.17843 -1.66829,1.05159 -8.02431,8.6027 -14.12448,16.78027 -16.9468,22.71797 -18.32834,23.10472 -42.18312,11.80885 -34.11559,-16.15464 -62.64559,-42.07943 -84.34886,-76.64656 -8.03959,-12.80478 -7.78318,-13.80011 8.03788,-31.20038 11.809,-12.98774 13.75559,-18.91352 9.46291,-28.8069 -1.09759,-2.52964 -7.13165,-17.00668 -13.40903,-32.17119 -6.27738,-15.16451 -12.29505,-28.80999 -13.37261,-30.32328 -3.05883,-4.29573 -6.93538,-5.39112 -19.07891,-5.39112 -12.1414,0 -17.83078,1.29288 -24.60861,5.59216 -6.99573,4.43751 -16.5113,16.34869 -21.76185,27.24055 -6.86033,14.23118 -8.07383,19.97074 -8.04844,38.06692 0.0189,13.50758 0.3061,16.25442 2.54325,24.32869 4.91493,17.73885 12.69339,33.15082 27.23143,53.95546 24.89979,35.63279 50.14286,62.71206 77.7346,83.38909 19.83679,14.86551 35.6911,23.64655 59.9554,33.20675 37.17756,14.64806 60.47534,19.26131 78.21287,15.48714 z"
     id="path883" /></svg>
